<svg xmlns="http://www.w3.org/2000/svg" width="22.589" height="22.697" viewBox="0 0 22.589 22.697"><defs><style>.a{fill-rule:evenodd;}</style></defs><path class="a" d="M19.547,3.3a11.25,11.25,0,0,0-17.7,13.571L.25,22.7l5.962-1.564A11.235,11.235,0,0,0,11.587,22.5h0A11.252,11.252,0,0,0,19.547,3.3ZM11.591,20.6h0A9.337,9.337,0,0,1,6.83,19.3l-.341-.2-3.538.928.944-3.45-.222-.354A9.348,9.348,0,1,1,11.591,20.6Zm5.128-7c-.281-.141-1.663-.82-1.92-.914s-.445-.14-.632.141-.726.914-.89,1.1-.328.211-.609.07a7.676,7.676,0,0,1-2.26-1.395,8.477,8.477,0,0,1-1.563-1.947c-.164-.281,0-.419.123-.574a7.949,7.949,0,0,0,.7-.961.517.517,0,0,0-.024-.492c-.07-.141-.632-1.524-.866-2.087-.228-.548-.46-.474-.632-.482s-.351-.01-.539-.01A1.032,1.032,0,0,0,6.86,6.4a3.152,3.152,0,0,0-.983,2.344,5.467,5.467,0,0,0,1.147,2.907,12.527,12.527,0,0,0,4.8,4.243,16.086,16.086,0,0,0,1.6.592,3.853,3.853,0,0,0,1.77.111,2.9,2.9,0,0,0,1.9-1.336,2.348,2.348,0,0,0,.164-1.336c-.07-.117-.258-.187-.538-.328Zm0,0" transform="translate(-0.25)"/></svg>